:SAMPLES-PER-SECOND 30
:FULLY-SPECIFIED
:DEGREES
473
root  -37.9608 36.8051 -31.7464 -19.306 -87.5362 56.3337
RightUpLeg  -75.2858 -14.9466 22.3734
RightLeg  39.0163 1.27211 0.824681
RightFoot  -2.06868 1.2848 -15.8841
RightToes  0.000482159 0.542163 -0.142577
Spine  72.9658 -4.99031 5.38138
Spine1  0.526279 -0.365361 -5.34579
HEad  -42.0197 -0.377067 -6.07732
LeftShoulder1  5.99962 -24.5878 -14.3333
LeftArm  -90.9304 -62.4525 32.9686
LeftForeArm  -4.76481 -14.4386 1.06361
LeftHand  -0.25398 0.0180481 5.50724
RightShoulder  2.44114 14.2845 6.01089
RightArm  -66.7667 51.6074 -18.5541
RightForeArm  -22.39 15.5926 4.34304
RightHand  0.741346 8.9231 5.48612
LeftUpLeg  -73.7983 14.0792 -19.9596
LeftLeg  36.3858 -0.768674 -0.238033
LeftFoot  -0.382974 -0.776668 8.10316
LeftToes  1.06248e-005 4.65854e-005 -8.185e-006
474
root  -38.2805 36.7105 -31.6886 -17.3336 -87.9458 55.3275
RightUpLeg  -75.9398 -14.3066 22.4977
RightLeg  39.7539 0.880013 0.499454
RightFoot  -3.25777 1.06767 -15.297
RightToes  0.000482159 0.542163 -0.142577
Spine  73.2203 -4.84573 5.3613
Spine1  0.403963 -0.193155 -5.45029
HEad  -41.9121 -0.367497 -6.33632
LeftShoulder1  5.64895 -24.4555 -13.0746
LeftArm  -92.0207 -61.6463 33.2993
LeftForeArm  -4.13252 -14.7171 1.21244
LeftHand  -0.25398 0.0180481 5.50724
RightShoulder  2.1909 13.5589 5.02196
RightArm  -69.0815 52.3595 -19.4278
RightForeArm  -20.903 15.6365 4.10446
RightHand  0.618058 9.17868 4.39818
LeftUpLeg  -74.8212 13.7015 -19.4397
LeftLeg  37.6249 0.166546 0.511552
LeftFoot  -1.8215 -0.648885 7.90369
LeftToes  1.06248e-005 4.65854e-005 -8.185e-006
475
root  -38.5665 36.6677 -31.6313 -16.2103 -88.0672 54.9086
RightUpLeg  -76.4042 -14.0722 22.4326
RightLeg  40.3201 0.663831 0.31469
RightFoot  -4.11675 0.862371 -14.0135
RightToes  0.000482159 0.542163 -0.142577
Spine  73.4491 -5.02062 5.26879
Spine1  0.449752 -0.332312 -5.89022
HEad  -41.9596 -0.161774 -6.00929
LeftShoulder1  5.49654 -24.3704 -12.5439
LeftArm  -93.6205 -60.6034 34.1369
LeftForeArm  -2.20788 -15.4882 0.942235
LeftHand  -0.25398 0.0180481 5.50724
RightShoulder  2.00673 12.8664 4.37286
RightArm  -70.8117 53.0796 -19.5997
RightForeArm  -19.3652 16.3751 4.10154
RightHand  0.502778 9.20036 3.47533
LeftUpLeg  -75.4215 13.2544 -19.0488
LeftLeg  38.4576 0.786652 1.04791
LeftFoot  -2.5375 -0.54715 7.30133
LeftToes  1.06248e-005 4.65854e-005 -8.185e-006
476
root  -38.8337 36.6711 -31.5731 -16.2424 -88.1133 55.4716
RightUpLeg  -76.6338 -13.9784 22.349
RightLeg  40.6225 0.424199 0.0992946
RightFoot  -4.66364 0.745109 -13.2423
RightToes  0.000482159 0.542163 -0.142577
Spine  73.5398 -5.12488 5.13225
Spine1  0.971173 -0.385207 -6.154
HEad  -42.2973 0.0195833 -5.60138
LeftShoulder1  5.51151 -24.2576 -12.6928
LeftArm  -96.4168 -59.7757 35.3583
LeftForeArm  1.3489 -16.6884 0.320703
LeftHand  -0.25398 0.0180481 5.50724
RightShoulder  1.9987 12.8962 4.28849
RightArm  -71.7047 52.8451 -20.9074
RightForeArm  -18.4214 17.3118 4.3146
RightHand  0.416696 8.74287 2.9109
LeftUpLeg  -75.7645 12.9592 -18.9053
LeftLeg  39.0158 1.10426 1.34077
LeftFoot  -2.67737 -0.534777 7.26519
LeftToes  1.06248e-005 4.65854e-005 -8.185e-006
477
root  -39.083 36.7021 -31.5114 -17.7161 -88.2572 57.4258
RightUpLeg  -76.6854 -13.8396 22.3718
RightLeg  40.6214 0.256934 -0.0544935
RightFoot  -4.9469 0.725495 -13.5061
RightToes  0.000482159 0.542163 -0.142577
Spine  73.4612 -5.02222 5.05376
Spine1  1.44414 -0.293757 -6.16937
HEad  -42.397 0.0861656 -5.29768
LeftShoulder1  5.60965 -24.2254 -13.1062
LeftArm  -99.2276 -59.3286 35.6556
LeftForeArm  5.57412 -18.0633 -0.544674
LeftHand  -0.25398 0.0180481 5.50724
RightShoulder  2.08057 13.347 4.46874
RightArm  -71.8689 52.2508 -22.9543
RightForeArm  -17.9534 17.6574 4.45748
RightHand  0.283307 8.2564 1.91878
LeftUpLeg  -75.8142 12.7683 -18.7492
LeftLeg  39.1546 1.46161 1.65787
LeftFoot  -3.16271 -0.519991 7.52746
LeftToes  1.06248e-005 4.65854e-005 -8.185e-006
478
root  -39.3006 36.7593 -31.4548 -22.6985 -88.3208 62.7893
RightUpLeg  -76.576 -13.7773 22.271
RightLeg  40.366 0.230577 -0.07914
RightFoot  -5.11822 0.733472 -14.037
RightToes  0.000482159 0.542163 -0.142577
Spine  73.4093 -4.9625 4.97607
Spine1  1.39885 -0.29058 -6.3139
HEad  -42.0375 0.0486382 -4.87088
LeftShoulder1  5.70538 -24.3117 -13.4132
LeftArm  -99.946 -59.1883 34.8822
LeftForeArm  8.30053 -18.9503 -1.23218
LeftHand  -0.25398 0.0180481 5.50724
RightShoulder  2.05276 13.253 4.35711
RightArm  -72.1304 52.6318 -23.8279
RightForeArm  -17.3139 17.2812 4.36579
RightHand  0.0410367 8.18403 -0.124543
LeftUpLeg  -75.5922 12.5557 -18.6017
LeftLeg  38.9333 1.7952 1.93586
LeftFoot  -3.74399 -0.466197 7.35046
LeftToes  1.06248e-005 4.65854e-005 -8.185e-006
479
root  -39.4834 36.8346 -31.4073 -29.3024 -88.2398 69.5764
RightUpLeg  -76.3105 -13.7636 21.8236
RightLeg  40.1146 0.174262 -0.130083
RightFoot  -5.23243 0.717191 -14.0112
RightToes  0.000482159 0.542163 -0.142577
Spine  73.4884 -5.03175 4.91199
Spine1  1.09849 -0.362586 -6.6955
HEad  -41.6841 -0.215188 -4.32882
LeftShoulder1  5.6767 -24.2587 -13.3433
LeftArm  -98.7134 -59.4082 33.6871
LeftForeArm  9.15437 -19.2462 -1.55598
LeftHand  -0.25398 0.0180481 5.50724
RightShoulder  1.93287 12.6794 4.01634
RightArm  -72.7778 53.739 -23.3071
RightForeArm  -16.8428 16.7428 4.16018
RightHand  -0.26439 8.19399 -2.73842
LeftUpLeg  -75.2283 12.4496 -18.636
LeftLeg  38.612 1.84478 1.95919
LeftFoot  -3.84743 -0.433355 6.96422
LeftToes  1.06248e-005 4.65854e-005 -8.185e-006
480
root  -39.6417 36.9006 -31.3651 -32.8066 -88.111 73.1354
RightUpLeg  -75.9587 -13.6815 21.2
RightLeg  39.9681 -0.170112 -0.439518
RightFoot  -5.43734 0.668841 -13.5978
RightToes  0.000482159 0.542163 -0.142577
Spine  73.5104 -5.08542 4.95475
Spine1  1.0479 -0.291744 -6.99357
HEad  -41.6926 -0.791638 -3.98519
LeftShoulder1  5.49495 -23.9624 -12.8651
LeftArm  -97.4463 -59.9876 32.2503
LeftForeArm  10.2208 -19.632 -1.93626
LeftHand  -0.25398 0.0180481 5.50724
RightShoulder  1.93915 12.6469 4.08413
RightArm  -73.1747 54.2013 -23.0986
RightForeArm  -17.4156 16.4032 4.04501
RightHand  -0.531261 7.85812 -5.12032
LeftUpLeg  -74.8531 12.4605 -18.7948
LeftLeg  38.387 1.74271 1.8589
LeftFoot  -3.74554 -0.432873 6.85282
LeftToes  1.06248e-005 4.65854e-005 -8.185e-006
